<svg width="25" height="26" viewBox="0 0 25 26" fill="none" xmlns="http://www.w3.org/2000/svg">
<g clip-path="url(#clip0_311_82)">
<path d="M23.9706 9.53333H1.02942C0.544123 9.53333 0.147064 9.92333 0.147064 10.4V23.4C0.147064 24.83 1.33824 26 2.79412 26H22.2059C23.6618 26 24.8529 24.83 24.8529 23.4V10.4C24.8529 9.92333 24.4559 9.53333 23.9706 9.53333ZM8.08824 21.6667C8.08824 22.1433 7.69118 22.5333 7.20589 22.5333H5.44118C4.95589 22.5333 4.55883 22.1433 4.55883 21.6667V19.9333C4.55883 19.4567 4.95589 19.0667 5.44118 19.0667H7.20589C7.69118 19.0667 8.08824 19.4567 8.08824 19.9333V21.6667ZM14.2647 21.6667C14.2647 22.1433 13.8677 22.5333 13.3824 22.5333H11.6177C11.1324 22.5333 10.7353 22.1433 10.7353 21.6667V19.9333C10.7353 19.4567 11.1324 19.0667 11.6177 19.0667H13.3824C13.8677 19.0667 14.2647 19.4567 14.2647 19.9333V21.6667ZM14.2647 15.6C14.2647 16.0767 13.8677 16.4667 13.3824 16.4667H11.6177C11.1324 16.4667 10.7353 16.0767 10.7353 15.6V13.8667C10.7353 13.39 11.1324 13 11.6177 13H13.3824C13.8677 13 14.2647 13.39 14.2647 13.8667V15.6ZM20.4412 15.6C20.4412 16.0767 20.0441 16.4667 19.5588 16.4667H17.7941C17.3088 16.4667 16.9118 16.0767 16.9118 15.6V13.8667C16.9118 13.39 17.3088 13 17.7941 13H19.5588C20.0441 13 20.4412 13.39 20.4412 13.8667V15.6ZM22.2059 2.6H20V1.73333C20 0.78 19.2059 0 18.2353 0C17.2647 0 16.4706 0.78 16.4706 1.73333V2.6H8.52942V1.73333C8.52942 0.78 7.7353 0 6.76471 0C5.79412 0 5.00001 0.78 5.00001 1.73333V2.6H2.79412C1.33824 2.6 0.147064 3.77 0.147064 5.2V6.06667C0.147064 6.54333 0.544123 6.93333 1.02942 6.93333H23.9706C24.4559 6.93333 24.8529 6.54333 24.8529 6.06667V5.2C24.8529 3.77 23.6618 2.6 22.2059 2.6Z" fill="#CCCCCC"/>
</g>
<defs>
<clipPath id="clip0_311_82">
<rect width="25" height="26" fill="white"/>
</clipPath>
</defs>
</svg>
